<svg width="20" height="16" viewBox="0 0 20 16" fill="none" xmlns="http://www.w3.org/2000/svg">
<path fill-rule="evenodd" clip-rule="evenodd" d="M7.5989 7.40995C7.17783 7.40995 6.84489 7.65208 6.84489 7.9583C6.84489 8.2574 7.17783 8.50664 7.5989 8.50664H13.4743V11.9107C13.4743 13.6554 11.5257 15.0797 9.11672 15.0797H4.34782C1.94869 15.0797 0 13.6625 0 11.9178V4.00593C0 2.25407 1.95848 0.836914 4.35762 0.836914H9.13631C11.5257 0.836914 13.4743 2.25407 13.4743 3.99881V7.40995H7.5989ZM16.9683 5.49442L19.7787 7.56674C19.923 7.67356 20 7.80887 20 7.95842C20 8.10085 19.923 8.24327 19.7787 8.34297L16.9683 10.4153C16.8239 10.5221 16.6315 10.5791 16.4486 10.5791C16.2561 10.5791 16.0636 10.5221 15.9192 10.4153C15.6305 10.2017 15.6305 9.85271 15.9192 9.63906L17.4592 8.50676H13.4746V7.41007H17.4592L15.9192 6.27777C15.6305 6.06413 15.6305 5.71518 15.9192 5.50154C16.208 5.28078 16.6796 5.28078 16.9683 5.49442Z" fill="#030229"/>
</svg>
